<?xml version="1.0" encoding="UTF-8"?>
<svg version="1.1" xmlns="http://www.w3.org/2000/svg" width="48" height="48">
<path d="M0 0 C0.99 0.33 1.98 0.66 3 1 C3 1.99 3 2.98 3 4 C3.886875 4.061875 4.77375 4.12375 5.6875 4.1875 C9.77444675 5.18995864 11.30264829 6.84024514 14 10 C15.20272819 12.40545638 15.10071472 13.94996953 15.0625 16.625 C15.05347656 17.44226563 15.04445312 18.25953125 15.03515625 19.1015625 C15.02355469 19.72804688 15.01195312 20.35453125 15 21 C15.804375 21.226875 16.60875 21.45375 17.4375 21.6875 C18.7059375 22.3371875 18.7059375 22.3371875 20 23 C20.8125 25.625 20.8125 25.625 21 28 C19.35 28.99 17.7 29.98 16 31 C17.22007944 33.6905528 17.22007944 33.6905528 19 36 C19 38.31 19 40.62 19 43 C4.48 43 -10.04 43 -25 43 C-24.67 40.03 -24.34 37.06 -24 34 C-21.525 33.505 -21.525 33.505 -19 33 C-19 31.35 -19 29.7 -19 28 C-18.01 28 -17.02 28 -16 28 C-16 26.35 -16 24.7 -16 23 C-16.66 23 -17.32 23 -18 23 C-18 21.68 -18 20.36 -18 19 C-17.01 18.67 -16.02 18.34 -15 18 C-15.33 15.03 -15.66 12.06 -16 9 C-14.68 9 -13.36 9 -12 9 C-12 8.34 -12 7.68 -12 7 C-11.34 7 -10.68 7 -10 7 C-10 5.35 -10 3.7 -10 2 C-6 3 -6 3 -2 4 C-1.34 2.68 -0.68 1.36 0 0 Z " fill="#BBFED7" transform="translate(27,3)"/>
<path d="M0 0 C0.99 0.33 1.98 0.66 3 1 C3 1.99 3 2.98 3 4 C3.886875 4.061875 4.77375 4.12375 5.6875 4.1875 C9.77444675 5.18995864 11.30264829 6.84024514 14 10 C15.20272819 12.40545638 15.10071472 13.94996953 15.0625 16.625 C15.05347656 17.44226563 15.04445313 18.25953125 15.03515625 19.1015625 C15.02355469 19.72804688 15.01195313 20.35453125 15 21 C15.804375 21.226875 16.60875 21.45375 17.4375 21.6875 C18.7059375 22.3371875 18.7059375 22.3371875 20 23 C20.8125 25.625 20.8125 25.625 21 28 C19.35 28.99 17.7 29.98 16 31 C17.22007944 33.6905528 17.22007944 33.6905528 19 36 C19 38.31 19 40.62 19 43 C14.38 43 9.76 43 5 43 C5 42.01 5 41.02 5 40 C8.63 40 12.26 40 16 40 C15.67 39.34 15.34 38.68 15 38 C12.525 38.495 12.525 38.495 10 39 C10.15855469 38.20722656 10.31710938 37.41445313 10.48046875 36.59765625 C11.1169184 32.19036208 11.26090617 27.88488775 11.3125 23.4375 C11.35600586 22.18163086 11.35600586 22.18163086 11.40039062 20.90039062 C11.44279012 16.78111669 11.34447792 14.56923323 9.16796875 10.97265625 C5.52330176 7.65633764 1.92081268 7.6614535 -2.78515625 7.71484375 C-6.1097451 8.14287724 -7.70297232 9.63734295 -10 12 C-10.763125 12.7425 -11.52625 13.485 -12.3125 14.25 C-12.869375 14.8275 -13.42625 15.405 -14 16 C-16 13 -16 13 -16 9 C-14.68 9 -13.36 9 -12 9 C-12 8.34 -12 7.68 -12 7 C-11.34 7 -10.68 7 -10 7 C-10 5.35 -10 3.7 -10 2 C-6 3 -6 3 -2 4 C-1.34 2.68 -0.68 1.36 0 0 Z " fill="#12E36D" transform="translate(27,3)"/>
<path d="M0 0 C0.51427566 8.39983572 -0.85883656 13.14511542 -6 20 C-0.39 20 5.22 20 11 20 C7.39338934 18.19669467 4.91606575 17.53400897 1 17 C1 16.01 1 15.02 1 14 C5.99754367 13.70602684 8.98418348 13.9020844 13 17 C15 20 15 20 15 24 C5.76 24 -3.48 24 -13 24 C-12.505 19.545 -12.505 19.545 -12 15 C-10.35 14.67 -8.7 14.34 -7 14 C-7 12.35 -7 10.7 -7 9 C-6.01 9 -5.02 9 -4 9 C-4 7.35 -4 5.7 -4 4 C-4.66 4 -5.32 4 -6 4 C-6 2.68 -6 1.36 -6 0 C-3 -1 -3 -1 0 0 Z " fill="#15E36E" transform="translate(15,22)"/>
<path d="M0 0 C9.66666667 -0.56862745 9.66666667 -0.56862745 14 3 C15.875 5 15.875 5 17 7 C16.67 7.99 16.34 8.98 16 10 C15.01 9.67 14.02 9.34 13 9 C13 10.65 13 12.3 13 14 C11.54263913 14.19491452 10.08405407 14.38069358 8.625 14.5625 C7.81289063 14.66691406 7.00078125 14.77132813 6.1640625 14.87890625 C4 15 4 15 2 14 C2 13.01 2 12.02 2 11 C2.66 11 3.32 11 4 11 C4 10.34 4 9.68 4 9 C2.68 9 1.36 9 0 9 C0 8.01 0 7.02 0 6 C0.99 6 1.98 6 3 6 C3 4.35 3 2.7 3 1 C2.01 0.67 1.02 0.34 0 0 Z " fill="#90FDC0" transform="translate(22,10)"/>
<path d="M0 0 C0.86625 1.11375 0.86625 1.11375 1.75 2.25 C3.72253526 4.66087643 5.76044282 6.84042701 8 9 C5.69 9 3.38 9 1 9 C1 9.99 1 10.98 1 12 C1.62648438 12.03738281 2.25296875 12.07476562 2.8984375 12.11328125 C3.71570312 12.17902344 4.53296875 12.24476562 5.375 12.3125 C6.59316406 12.39951172 6.59316406 12.39951172 7.8359375 12.48828125 C10 13 10 13 12 16 C5.73 16 -0.54 16 -7 16 C-6.21625 14.659375 -5.4325 13.31875 -4.625 11.9375 C-2.41990974 7.98957636 -1.02764699 4.39085532 0 0 Z " fill="#E6FDF0" transform="translate(15,27)"/>
<path d="M0 0 C3.71162994 1.85581497 5.01775064 2.55714584 7 6 C6.67 6.99 6.34 7.98 6 9 C5.01 8.67 4.02 8.34 3 8 C3 9.65 3 11.3 3 13 C1.54263913 13.19491452 0.08405407 13.38069358 -1.375 13.5625 C-2.18710937 13.66691406 -2.99921875 13.77132813 -3.8359375 13.87890625 C-6 14 -6 14 -8 13 C-8 12.01 -8 11.02 -8 10 C-5.69 10 -3.38 10 -1 10 C-0.67 6.7 -0.34 3.4 0 0 Z " fill="#6BF9A9" transform="translate(32,11)"/>
<path d="M0 0 C0.99 0 1.98 0 3 0 C4.35439668 2.70879335 4.06501451 5.00933268 4 8 C1.75 8.75 1.75 8.75 -1 9 C-3.3125 7.0625 -3.3125 7.0625 -5 5 C-4.67 4.01 -4.34 3.02 -4 2 C-2.68 2.99 -1.36 3.98 0 5 C0 3.35 0 1.7 0 0 Z " fill="#21E576" transform="translate(21,25)"/>
<path d="M0 0 C2.97 0 5.94 0 9 0 C9.33 0.99 9.66 1.98 10 3 C7.26094655 4.36952673 5.02912668 4.12621361 2 4 C1.34 3.67 0.68 3.34 0 3 C0 2.01 0 1.02 0 0 Z " fill="#21E677" transform="translate(24,21)"/>
<path d="M0 0 C1.32 0 2.64 0 4 0 C4.125 6.75 4.125 6.75 3 9 C2.01 9 1.02 9 0 9 C0 8.01 0 7.02 0 6 C0.99 6 1.98 6 3 6 C3 4.35 3 2.7 3 1 C2.01 0.67 1.02 0.34 0 0 Z " fill="#62F3A1" transform="translate(22,10)"/>
<path d="M0 0 C1.2065625 0.0309375 1.2065625 0.0309375 2.4375 0.0625 C2.4375 1.7125 2.4375 3.3625 2.4375 5.0625 C1.4475 5.0625 0.4575 5.0625 -0.5625 5.0625 C-0.8925 4.0725 -1.2225 3.0825 -1.5625 2.0625 C-2.2225 1.7325 -2.8825 1.4025 -3.5625 1.0625 C-2.5625 0.0625 -2.5625 0.0625 0 0 Z " fill="#9CFDC7" transform="translate(22.5625,10.9375)"/>
</svg>
